HIERARCHY
ROOT Hips
{
	OFFSET 0.000000 0.000000 0.000000
	CHANNELS 6 Xposition Yposition Zposition Xrotation Yrotation Zrotation
	JOINT LeftUpLeg_virtual
	{
		OFFSET 0.000000 0.000000 0.000000
		CHANNELS 3 Xrotation Yrotation Zrotation
		JOINT LeftUpLeg
		{
			OFFSET 15.427100 -6.655098 0.678600
			CHANNELS 3 Xrotation Yrotation Zrotation
			JOINT LeftLeg
			{
				OFFSET 4.081073 -39.591068 13.024000
				CHANNELS 3 Xrotation Yrotation Zrotation
				JOINT LeftFoot
				{
					OFFSET -4.081074 -37.707932 -15.979700
					CHANNELS 3 Xrotation Yrotation Zrotation
					JOINT LeftToeBase
					{
						OFFSET 5.346399 -15.068900 20.645000
						CHANNELS 3 Xrotation Yrotation Zrotation
						JOINT LeftToe_End
						{
							OFFSET 2.754700 0.931300 11.300900
							CHANNELS 3 Xrotation Yrotation Zrotation
							End Site
							{
								OFFSET 0 0 0
							}
						}
					}
				}
			}
		}
	}
	JOINT RightUpLeg_virtual
	{
		OFFSET 0.000000 0.000000 0.000000
		CHANNELS 3 Xrotation Yrotation Zrotation
		JOINT RightUpLeg
		{
			OFFSET -15.569500 -6.655098 0.678600
			CHANNELS 3 Xrotation Yrotation Zrotation
			JOINT RightLeg
			{
				OFFSET -4.081825 -39.591045 13.023800
				CHANNELS 3 Xrotation Yrotation Zrotation
				JOINT RightFoot
				{
					OFFSET 4.081824 -37.707954 -15.979600
					CHANNELS 3 Xrotation Yrotation Zrotation
					JOINT RightToeBase
					{
						OFFSET -5.346400 -15.068900 20.645000
						CHANNELS 3 Xrotation Yrotation Zrotation
						JOINT RightToe_End
						{
							OFFSET -2.754700 0.931300 11.300900
							CHANNELS 3 Xrotation Yrotation Zrotation
							End Site
							{
								OFFSET 0 0 0
							}
						}
					}
				}
			}
		}
	}
	JOINT Spine_virtual
	{
		OFFSET 0.000000 0.000000 0.000000
		CHANNELS 3 Xrotation Yrotation Zrotation
		JOINT Spine
		{
			OFFSET -0.279200 12.230698 -2.892100
			CHANNELS 3 Xrotation Yrotation Zrotation
			JOINT Spine1
			{
				OFFSET -0.232667 10.192268 -1.242267
				CHANNELS 3 Xrotation Yrotation Zrotation
				JOINT Spine1_split
				{
					OFFSET -0.232667 10.192268 -1.242267
					CHANNELS 3 Xrotation Yrotation Zrotation
					JOINT Spine2
					{
						OFFSET -0.232667 10.192268 -1.242267
						CHANNELS 3 Xrotation Yrotation Zrotation
						JOINT Neck_virtual
						{
							OFFSET 0.000000 0.000000 0.000000
							CHANNELS 3 Xrotation Yrotation Zrotation
							JOINT Neck
							{
								OFFSET -0.418800 17.814194 8.416900
								CHANNELS 3 Xrotation Yrotation Zrotation
								JOINT Head
								{
									OFFSET 0.000000 7.031097 3.806800
									CHANNELS 3 Xrotation Yrotation Zrotation
									JOINT HeadTop_End
									{
										OFFSET 0.000000 24.646606 12.978600
										CHANNELS 3 Xrotation Yrotation Zrotation
										End Site
										{
											OFFSET 0 0 0
										}
									}
								}
							}
						}
						JOINT LeftShoulder_virtual
						{
							OFFSET 0.000000 0.000000 0.000000
							CHANNELS 3 Xrotation Yrotation Zrotation
							JOINT LeftShoulder
							{
								OFFSET 8.476499 7.247704 -3.868750
								CHANNELS 3 Xrotation Yrotation Zrotation
								JOINT LeftShoulder_split
								{
									OFFSET 8.476499 7.247704 -3.868750
									CHANNELS 3 Xrotation Yrotation Zrotation
									JOINT LeftArm
									{
										OFFSET 9.308998 -2.777710 0.208600
										CHANNELS 3 Xrotation Yrotation Zrotation
										JOINT LeftForeArm
										{
											OFFSET 29.972298 0.000000 0.000000
											CHANNELS 3 Xrotation Yrotation Zrotation
											JOINT LeftHand
											{
												OFFSET 26.026505 0.000000 0.000000
												CHANNELS 3 Xrotation Yrotation Zrotation
												End Site
												{
													OFFSET 0 0 0
												}
											}
										}
									}
								}
							}
						}
						JOINT RightShoulder_virtual
						{
							OFFSET 0.000000 0.000000 0.000000
							CHANNELS 3 Xrotation Yrotation Zrotation
							JOINT RightShoulder
							{
								OFFSET -7.570500 7.247704 -3.868750
								CHANNELS 3 Xrotation Yrotation Zrotation
								JOINT RightShoulder_split
								{
									OFFSET -7.570500 7.247704 -3.868750
									CHANNELS 3 Xrotation Yrotation Zrotation
									JOINT RightArm
									{
										OFFSET -9.308998 -2.777710 0.208500
										CHANNELS 3 Xrotation Yrotation Zrotation
										JOINT RightForeArm
										{
											OFFSET -29.972300 0.000000 0.000000
											CHANNELS 3 Xrotation Yrotation Zrotation
											JOINT RightHand
											{
												OFFSET -26.026505 0.000000 0.000000
												CHANNELS 3 Xrotation Yrotation Zrotation
												End Site
												{
													OFFSET 0 0 0
												}
											}
										}
									}
								}
							}
						}
					}
				}
			}
		}
	}
}
MOTION
Frames: 11
Frame Time: 0.03333333
-8.767424 73.209572 -11.137798 0.000000 0.000000 0.000000 1.445367 16.140015 6.365044 -53.026840 7.329657 27.015345 52.931183 -17.165141 4.096000 4.637786 -3.910367 -19.577931 -0.607658 -4.679439 3.437643 0.000000 0.000000 0.000000 -0.113541 20.622037 6.696341 -24.753994 -3.586341 -27.464670 51.545730 17.618056 -7.561738 -30.467148 -10.533462 32.947026 11.716643 1.918529 -9.064812 0.000000 0.000000 0.000000 0.541401 17.936335 5.268664 -4.631600 4.843909 1.651020 14.610292 3.412445 -3.674360 0.225896 -1.395739 0.237126 0.000000 0.000000 0.000000 15.926382 4.099933 -0.273565 -27.066520 23.059359 17.700867 -6.931555 34.946922 -0.657464 0.000000 0.000000 0.000000 8.791231 1.516352 -1.900473 -4.719477 -23.032132 10.707162 -1.638799 -0.766583 -2.223236 -0.993310 38.111936 -75.467771 13.221082 -80.190273 18.358852 0.000000 0.000000 0.000000 8.322314 -0.101300 0.130602 1.757106 0.590237 -9.058661 -30.839008 4.060839 -11.442752 -21.254374 -2.231862 59.975276 2.023942 19.065597 2.513838 0.000000 0.000000 0.000000 
-8.968070 72.918312 -11.365780 0.000000 0.000000 0.000000 1.401568 16.410866 6.363157 -52.450614 6.947954 26.894648 53.265544 -17.152186 4.089158 4.522851 -3.647435 -18.873155 -1.078442 -4.640100 3.396550 0.000000 0.000000 0.000000 -0.274206 20.678167 6.680080 -25.495454 -3.301480 -27.813106 51.909731 17.702493 -7.570456 -30.278543 -10.273177 33.521875 11.615598 2.041829 -9.189952 0.000000 0.000000 0.000000 0.407655 17.374657 5.563195 -4.235625 4.707010 1.403925 14.703176 3.539788 -3.610111 0.174442 -1.317853 0.198965 0.000000 0.000000 0.000000 15.801195 4.253012 -0.237144 -27.196341 23.001400 17.601497 -7.438740 34.690019 -0.637009 0.000000 0.000000 0.000000 8.880951 1.690190 -1.901753 -4.681474 -22.639852 10.442179 -2.733453 -0.063577 -1.962796 -0.210925 38.442951 -75.090922 12.999591 -79.457899 17.998966 0.000000 0.000000 0.000000 8.190067 0.039638 0.068835 1.972644 2.362525 -8.695011 -31.018105 4.799220 -11.462511 -20.588263 -2.607087 58.865528 2.405432 14.770079 2.967028 0.000000 0.000000 0.000000 
-9.227231 72.599556 -11.341419 0.000000 0.000000 0.000000 1.262200 16.109257 6.400152 -51.441167 6.457332 26.892255 52.944710 -16.523568 3.810966 4.515271 -2.452236 -17.592226 -1.912400 -4.457571 3.009764 0.000000 0.000000 0.000000 -0.403373 20.158381 6.640200 -26.208394 -2.920133 -28.148611 52.320499 17.616366 -7.596740 -29.970020 -9.871182 34.169053 12.178709 2.223601 -9.227754 0.000000 0.000000 0.000000 0.070245 16.720803 5.788323 -3.679658 4.428392 0.946045 14.632760 3.673911 -3.581302 0.112682 -1.211143 0.173315 0.000000 0.000000 0.000000 15.364864 4.414699 -0.200999 -26.264278 23.555270 16.967261 -7.990363 34.892848 -0.601133 0.000000 0.000000 0.000000 8.787750 1.835765 -1.927238 -4.637837 -21.991910 10.036800 -3.782715 0.349968 -1.257545 0.977228 38.915174 -74.720869 14.052326 -79.287425 18.884877 0.000000 0.000000 0.000000 7.833163 0.223809 0.017278 2.184922 4.504417 -8.015298 -30.684744 5.073529 -11.568338 -19.086354 -2.011397 57.056542 3.562884 9.746510 3.546058 0.000000 0.000000 0.000000 
-9.473336 72.411125 -11.168671 0.000000 0.000000 0.000000 1.029737 15.208823 6.476995 -50.343016 6.029267 27.016873 51.790357 -15.570074 3.378148 5.032235 -0.937211 -16.319926 -2.859689 -4.149977 2.400895 0.000000 0.000000 0.000000 -0.536135 19.243291 6.653324 -26.663132 -2.599701 -28.388307 52.711947 17.221036 -7.714269 -29.912325 -9.622768 34.656472 13.494791 2.433500 -9.165935 0.000000 0.000000 0.000000 -0.238803 16.330825 5.915095 -3.033169 4.028455 0.362022 14.392238 3.795662 -3.627531 0.088619 -1.130875 0.193749 0.000000 0.000000 0.000000 14.752353 4.558418 -0.228453 -24.482680 24.518390 16.098348 -8.646382 35.482194 -0.370071 0.000000 0.000000 0.000000 8.550568 1.941641 -2.015893 -4.587938 -21.096813 9.636150 -4.646436 -0.072268 -0.478982 2.057605 39.175151 -74.354095 16.546915 -79.810316 21.130578 0.000000 0.000000 0.000000 7.328294 0.392223 -0.046735 2.364926 6.557412 -6.998160 -30.254371 4.200527 -11.474214 -16.673962 -0.415694 54.906084 5.181515 5.451917 4.302320 0.000000 0.000000 0.000000 
-9.572529 72.581337 -10.960217 0.000000 0.000000 0.000000 0.755889 14.270688 6.558968 -49.470244 5.740722 27.110928 49.975237 -14.809114 3.030647 6.529330 -0.043213 -15.888934 -3.523113 -3.804715 1.812271 0.000000 0.000000 0.000000 -0.730018 18.142618 6.746112 -26.575508 -2.454994 -28.437549 52.904641 16.485037 -7.952339 -30.048314 -9.738729 35.040810 14.694040 2.703724 -9.015924 0.000000 0.000000 0.000000 -0.531469 16.276824 5.967138 -2.369103 3.503563 -0.195862 14.019812 3.909326 -3.754851 0.089998 -1.126794 0.221338 0.000000 0.000000 0.000000 14.093107 4.670851 -0.391896 -22.227922 25.576958 15.342307 -9.524636 36.236599 0.228917 0.000000 0.000000 0.000000 8.237831 2.024221 -2.191934 -4.513101 -20.039973 9.383485 -5.165253 -1.028796 -0.097675 2.532624 39.000298 -73.960690 19.926117 -80.757964 24.206983 0.000000 0.000000 0.000000 6.801224 0.534176 -0.136471 2.530820 8.120894 -5.732311 -30.245427 2.492132 -11.045779 -13.156570 2.178852 52.781585 6.919563 2.684647 5.121882 0.000000 0.000000 0.000000 
-9.495137 73.144028 -10.892666 0.000000 0.000000 0.000000 0.540013 13.904149 6.636701 -49.317938 5.737160 26.926455 47.765958 -14.445725 2.877322 8.830885 -0.408548 -16.375857 -3.313749 -3.539402 1.551839 0.000000 0.000000 0.000000 -0.765607 17.360493 6.887330 -25.757349 -2.506454 -28.241357 52.776930 15.439627 -8.247769 -30.096870 -10.161973 35.502384 15.010160 3.074917 -8.812950 0.000000 0.000000 0.000000 -0.646614 16.886533 6.004272 -1.732976 2.867388 -0.580479 13.612244 4.011381 -3.922477 0.106142 -1.183656 0.220446 0.000000 0.000000 0.000000 13.510973 4.788033 -0.678723 -19.966706 26.370911 15.022342 -10.646090 36.757694 1.166455 0.000000 0.000000 0.000000 7.947349 2.091354 -2.420977 -4.395258 -18.896968 9.394775 -5.513533 -1.584526 -0.249933 2.022233 38.318734 -73.442675 22.633036 -81.640008 26.565850 0.000000 0.000000 0.000000 6.353929 0.661338 -0.263819 2.706873 8.886056 -4.284047 -30.219947 0.809098 -10.740139 -8.470948 5.727362 50.664526 8.501460 1.472499 5.912166 0.000000 0.000000 0.000000 
-9.326327 73.994728 -11.202187 0.000000 0.000000 0.000000 0.431522 14.588324 6.682252 -49.813379 5.941150 26.391527 45.473945 -14.773255 2.911244 11.149553 -1.999641 -17.622262 -2.424795 -3.447262 1.968204 0.000000 0.000000 0.000000 -0.433597 17.465069 6.979568 -24.199876 -2.825706 -27.695654 52.131624 14.126199 -8.460967 -30.006257 -10.863214 35.979384 14.582024 3.538336 -8.486034 0.000000 0.000000 0.000000 -0.449457 18.187023 5.984338 -1.124997 2.092851 -0.786465 13.240311 4.115402 -4.101746 0.120720 -1.306619 0.214250 0.000000 0.000000 0.000000 13.097697 4.940633 -1.014938 -18.250904 26.673337 15.370581 -11.999224 36.898833 2.319895 0.000000 0.000000 0.000000 7.690964 2.186067 -2.656496 -4.207152 -17.774913 9.721599 -5.364781 -1.367134 -0.391979 0.545633 37.228749 -72.763665 22.862817 -82.125778 26.407813 0.000000 0.000000 0.000000 6.078087 0.796441 -0.371853 2.945919 8.827964 -2.867997 -30.482485 -0.743358 -10.725280 -2.649046 9.992649 48.278881 9.698506 1.267551 6.559338 0.000000 0.000000 0.000000 
-9.093445 74.970284 -11.892467 0.000000 0.000000 0.000000 0.643484 16.513017 6.659769 -50.516666 6.421939 25.342898 43.229500 -15.348316 2.885349 12.220783 -3.812879 -18.816189 -0.542201 -3.499800 2.726760 0.000000 0.000000 0.000000 0.206656 18.647067 6.953512 -22.141166 -3.407333 -26.874416 50.971526 12.683629 -8.447450 -30.023500 -11.704415 36.244600 13.844419 4.028610 -8.066587 0.000000 0.000000 0.000000 -0.005091 19.942313 5.851844 -0.559962 1.196280 -0.829039 12.953515 4.255093 -4.238364 0.128328 -1.409517 0.204405 0.000000 0.000000 0.000000 12.830049 5.136174 -1.301080 -17.428997 26.340049 16.383860 -13.461198 36.702308 3.422338 0.000000 0.000000 0.000000 7.506492 2.329362 -2.824340 -3.952665 -16.707519 10.270874 -4.715776 -0.667734 -0.590527 -1.671657 35.895526 -71.981287 18.928660 -82.019056 22.093106 0.000000 0.000000 0.000000 5.976629 0.986925 -0.419937 3.264714 7.848201 -1.771131 -30.831392 -1.543791 -10.839935 3.916211 14.662289 45.192592 10.330117 1.666662 6.962152 0.000000 0.000000 0.000000 
-8.821356 75.814262 -12.805759 0.000000 0.000000 0.000000 1.242286 18.940617 6.543252 -50.947979 7.053018 23.935228 41.646204 -15.384012 2.658876 11.239504 -4.623219 -19.177887 1.866560 -3.612059 3.372261 0.000000 0.000000 0.000000 1.191428 20.658454 6.719189 -20.058695 -4.213612 -26.017085 49.633506 11.237375 -8.088200 -30.321733 -12.412623 36.080734 13.418900 4.501203 -7.652447 0.000000 0.000000 0.000000 0.640321 21.899620 5.600946 0.042838 0.266788 -0.789519 12.720208 4.405863 -4.290300 0.113861 -1.403308 0.220057 0.000000 0.000000 0.000000 12.676330 5.342751 -1.448161 -17.723902 25.467159 17.942514 -14.862685 36.578853 4.163391 0.000000 0.000000 0.000000 7.351473 2.527167 -2.853981 -3.653232 -15.673389 10.876069 -3.230525 0.267100 -0.801104 -4.237022 34.256739 -71.270654 12.548262 -81.534523 15.330085 0.000000 0.000000 0.000000 5.968869 1.217333 -0.379347 3.642067 5.891773 -1.195838 -31.305574 -1.793734 -10.897504 11.128861 19.323184 41.205479 10.402126 2.732226 7.005789 0.000000 0.000000 0.000000 
-8.508151 76.363266 -13.767582 0.000000 0.000000 0.000000 2.121055 21.184802 6.249734 -50.338986 7.733535 22.458039 41.518394 -14.549314 2.294304 8.202455 -3.787101 -18.386690 3.583989 -3.746341 3.597960 0.000000 0.000000 0.000000 2.353965 22.819875 6.217671 -18.635587 -5.266624 -25.411302 48.509680 9.899341 -7.314428 -30.625148 -12.853151 35.667070 13.427565 4.931441 -7.422021 0.000000 0.000000 0.000000 1.515100 23.739945 5.157466 0.784431 -0.628969 -0.750270 12.461255 4.570967 -4.236053 0.125463 -1.293513 0.250859 0.000000 0.000000 0.000000 12.554671 5.526505 -1.441374 -19.056076 24.376127 19.894432 -16.061706 36.929836 4.495873 0.000000 0.000000 0.000000 7.161231 2.758930 -2.737241 -3.331583 -14.639312 11.356090 -1.198427 1.116498 -1.007038 -6.583794 32.207258 -70.884817 6.040519 -81.150311 8.443723 0.000000 0.000000 0.000000 5.963684 1.449009 -0.250213 4.035661 2.954974 -1.147260 -32.030049 -2.430722 -10.476245 18.593923 23.780303 36.771006 10.092322 5.065556 6.492065 0.000000 0.000000 0.000000 
-8.190441 76.556885 -14.719898 0.000000 0.000000 0.000000 3.262257 22.636138 5.715635 -48.354830 8.439287 21.318086 43.193758 -12.531039 1.780863 3.416124 -1.339602 -16.116731 4.277018 -3.923614 3.195827 0.000000 0.000000 0.000000 3.330248 24.388963 5.526698 -18.259708 -6.423615 -25.200883 47.901425 8.762158 -6.189152 -30.510339 -12.967151 35.770701 12.544101 5.369403 -7.577279 0.000000 0.000000 0.000000 2.522769 25.224705 4.534826 1.703390 -1.416214 -0.745954 12.094104 4.696068 -4.070084 0.154733 -1.115178 0.289222 0.000000 0.000000 0.000000 12.360327 5.647398 -1.324764 -21.216533 23.303186 22.146263 -16.807345 38.022796 4.424199 0.000000 0.000000 0.000000 6.908026 2.970700 -2.508613 -3.046491 -13.572626 11.586895 0.917375 1.923836 -1.294902 -8.396194 29.799791 -70.912622 0.164127 -81.099337 2.151418 0.000000 0.000000 0.000000 5.839396 1.622257 -0.105425 4.416935 -0.826319 -1.487849 -32.215683 -3.495053 -9.626634 25.932642 28.275907 32.619150 9.678509 9.683052 5.333407 0.000000 0.000000 0.000000 
